ISO-10303-21;
HEADER;
FILE_DESCRIPTION(('Pruefkoerper'),'2;1');
FILE_NAME('pruefkoerper','2026-09-13T00:00:00',(''),(''),'','','');
FILE_SCHEMA(('AUTOMOTIVE_DESIGN'));
ENDSEC;
DATA;
#9001=(LENGTH_UNIT()NAMED_UNIT(*)SI_UNIT(.MILLI.,.METRE.));
#9002=(NAMED_UNIT(*)PLANE_ANGLE_UNIT()SI_UNIT($,.RADIAN.));
#1=CARTESIAN_POINT('',(30,0,0));
#2=VERTEX_POINT('',#1);
#3=CARTESIAN_POINT('',(-30,0,0));
#4=VERTEX_POINT('',#3);
#5=CARTESIAN_POINT('',(0,0,0));
#6=DIRECTION('',(0,0,1));
#7=DIRECTION('',(1,0,0));
#8=AXIS2_PLACEMENT_3D('',#5,#6,#7);
#9=CIRCLE('',#8,30);
#10=EDGE_CURVE('',#2,#4,#9,.T.);
#11=CARTESIAN_POINT('',(0,0,0));
#12=DIRECTION('',(0,0,1));
#13=DIRECTION('',(1,0,0));
#14=AXIS2_PLACEMENT_3D('',#11,#12,#13);
#15=CIRCLE('',#14,30);
#16=EDGE_CURVE('',#4,#2,#15,.T.);
#17=ORIENTED_EDGE('',*,*,#10,.T.);
#18=ORIENTED_EDGE('',*,*,#16,.T.);
#19=EDGE_LOOP('',(#17,#18));
#20=CARTESIAN_POINT('',(30,0,45));
#21=VERTEX_POINT('',#20);
#22=CARTESIAN_POINT('',(-30,0,45));
#23=VERTEX_POINT('',#22);
#24=CARTESIAN_POINT('',(0,0,45));
#25=DIRECTION('',(0,0,1));
#26=DIRECTION('',(1,0,0));
#27=AXIS2_PLACEMENT_3D('',#24,#25,#26);
#28=CIRCLE('',#27,30);
#29=EDGE_CURVE('',#21,#23,#28,.T.);
#30=CARTESIAN_POINT('',(0,0,45));
#31=DIRECTION('',(0,0,1));
#32=DIRECTION('',(1,0,0));
#33=AXIS2_PLACEMENT_3D('',#30,#31,#32);
#34=CIRCLE('',#33,30);
#35=EDGE_CURVE('',#23,#21,#34,.T.);
#36=ORIENTED_EDGE('',*,*,#35,.F.);
#37=ORIENTED_EDGE('',*,*,#29,.F.);
#38=EDGE_LOOP('',(#36,#37));
#39=CARTESIAN_POINT('',(0,0,0));
#40=DIRECTION('',(0,0,1));
#41=DIRECTION('',(1,0,0));
#42=AXIS2_PLACEMENT_3D('',#39,#40,#41);
#43=CYLINDRICAL_SURFACE('',#42,30);
#44=FACE_OUTER_BOUND('',#19,.T.);
#45=FACE_BOUND('',#38,.T.);
#46=ADVANCED_FACE('',(#44,#45),#43,.T.);
#47=CARTESIAN_POINT('',(30,0,0));
#48=VERTEX_POINT('',#47);
#49=CARTESIAN_POINT('',(-30,0,0));
#50=VERTEX_POINT('',#49);
#51=CARTESIAN_POINT('',(0,0,0));
#52=DIRECTION('',(0,0,1));
#53=DIRECTION('',(1,0,0));
#54=AXIS2_PLACEMENT_3D('',#51,#52,#53);
#55=CIRCLE('',#54,30);
#56=EDGE_CURVE('',#48,#50,#55,.T.);
#57=CARTESIAN_POINT('',(0,0,0));
#58=DIRECTION('',(0,0,1));
#59=DIRECTION('',(1,0,0));
#60=AXIS2_PLACEMENT_3D('',#57,#58,#59);
#61=CIRCLE('',#60,30);
#62=EDGE_CURVE('',#50,#48,#61,.T.);
#63=ORIENTED_EDGE('',*,*,#62,.F.);
#64=ORIENTED_EDGE('',*,*,#56,.F.);
#65=EDGE_LOOP('',(#63,#64));
#66=FACE_OUTER_BOUND('',#65,.T.);
#67=CARTESIAN_POINT('',(15,0,0));
#68=VERTEX_POINT('',#67);
#69=CARTESIAN_POINT('',(-15,0,0));
#70=VERTEX_POINT('',#69);
#71=CARTESIAN_POINT('',(0,0,0));
#72=DIRECTION('',(0,0,1));
#73=DIRECTION('',(1,0,0));
#74=AXIS2_PLACEMENT_3D('',#71,#72,#73);
#75=CIRCLE('',#74,15);
#76=EDGE_CURVE('',#68,#70,#75,.T.);
#77=CARTESIAN_POINT('',(0,0,0));
#78=DIRECTION('',(0,0,1));
#79=DIRECTION('',(1,0,0));
#80=AXIS2_PLACEMENT_3D('',#77,#78,#79);
#81=CIRCLE('',#80,15);
#82=EDGE_CURVE('',#70,#68,#81,.T.);
#83=ORIENTED_EDGE('',*,*,#76,.T.);
#84=ORIENTED_EDGE('',*,*,#82,.T.);
#85=EDGE_LOOP('',(#83,#84));
#86=FACE_BOUND('',#85,.T.);
#87=CARTESIAN_POINT('',(0,0,0));
#88=DIRECTION('',(0,0,-1));
#89=DIRECTION('',(1,0,0));
#90=AXIS2_PLACEMENT_3D('',#87,#88,#89);
#91=PLANE('',#90);
#92=ADVANCED_FACE('',(#66,#86),#91,.T.);
#93=CARTESIAN_POINT('',(30,0,45));
#94=VERTEX_POINT('',#93);
#95=CARTESIAN_POINT('',(-30,0,45));
#96=VERTEX_POINT('',#95);
#97=CARTESIAN_POINT('',(0,0,45));
#98=DIRECTION('',(0,0,1));
#99=DIRECTION('',(1,0,0));
#100=AXIS2_PLACEMENT_3D('',#97,#98,#99);
#101=CIRCLE('',#100,30);
#102=EDGE_CURVE('',#94,#96,#101,.T.);
#103=CARTESIAN_POINT('',(0,0,45));
#104=DIRECTION('',(0,0,1));
#105=DIRECTION('',(1,0,0));
#106=AXIS2_PLACEMENT_3D('',#103,#104,#105);
#107=CIRCLE('',#106,30);
#108=EDGE_CURVE('',#96,#94,#107,.T.);
#109=ORIENTED_EDGE('',*,*,#102,.T.);
#110=ORIENTED_EDGE('',*,*,#108,.T.);
#111=EDGE_LOOP('',(#109,#110));
#112=FACE_OUTER_BOUND('',#111,.T.);
#113=CARTESIAN_POINT('',(15,0,45));
#114=VERTEX_POINT('',#113);
#115=CARTESIAN_POINT('',(-15,0,45));
#116=VERTEX_POINT('',#115);
#117=CARTESIAN_POINT('',(0,0,45));
#118=DIRECTION('',(0,0,1));
#119=DIRECTION('',(1,0,0));
#120=AXIS2_PLACEMENT_3D('',#117,#118,#119);
#121=CIRCLE('',#120,15);
#122=EDGE_CURVE('',#114,#116,#121,.T.);
#123=CARTESIAN_POINT('',(0,0,45));
#124=DIRECTION('',(0,0,1));
#125=DIRECTION('',(1,0,0));
#126=AXIS2_PLACEMENT_3D('',#123,#124,#125);
#127=CIRCLE('',#126,15);
#128=EDGE_CURVE('',#116,#114,#127,.T.);
#129=ORIENTED_EDGE('',*,*,#128,.F.);
#130=ORIENTED_EDGE('',*,*,#122,.F.);
#131=EDGE_LOOP('',(#129,#130));
#132=FACE_BOUND('',#131,.T.);
#133=CARTESIAN_POINT('',(0,0,45));
#134=DIRECTION('',(0,0,1));
#135=DIRECTION('',(1,0,0));
#136=AXIS2_PLACEMENT_3D('',#133,#134,#135);
#137=PLANE('',#136);
#138=ADVANCED_FACE('',(#112,#132),#137,.T.);
#139=CARTESIAN_POINT('',(15,0,0));
#140=VERTEX_POINT('',#139);
#141=CARTESIAN_POINT('',(-15,0,0));
#142=VERTEX_POINT('',#141);
#143=CARTESIAN_POINT('',(0,0,0));
#144=DIRECTION('',(0,0,1));
#145=DIRECTION('',(1,0,0));
#146=AXIS2_PLACEMENT_3D('',#143,#144,#145);
#147=CIRCLE('',#146,15);
#148=EDGE_CURVE('',#140,#142,#147,.T.);
#149=CARTESIAN_POINT('',(0,0,0));
#150=DIRECTION('',(0,0,1));
#151=DIRECTION('',(1,0,0));
#152=AXIS2_PLACEMENT_3D('',#149,#150,#151);
#153=CIRCLE('',#152,15);
#154=EDGE_CURVE('',#142,#140,#153,.T.);
#155=ORIENTED_EDGE('',*,*,#154,.F.);
#156=ORIENTED_EDGE('',*,*,#148,.F.);
#157=EDGE_LOOP('',(#155,#156));
#158=CARTESIAN_POINT('',(15,0,45));
#159=VERTEX_POINT('',#158);
#160=CARTESIAN_POINT('',(-15,0,45));
#161=VERTEX_POINT('',#160);
#162=CARTESIAN_POINT('',(0,0,45));
#163=DIRECTION('',(0,0,1));
#164=DIRECTION('',(1,0,0));
#165=AXIS2_PLACEMENT_3D('',#162,#163,#164);
#166=CIRCLE('',#165,15);
#167=EDGE_CURVE('',#159,#161,#166,.T.);
#168=CARTESIAN_POINT('',(0,0,45));
#169=DIRECTION('',(0,0,1));
#170=DIRECTION('',(1,0,0));
#171=AXIS2_PLACEMENT_3D('',#168,#169,#170);
#172=CIRCLE('',#171,15);
#173=EDGE_CURVE('',#161,#159,#172,.T.);
#174=ORIENTED_EDGE('',*,*,#167,.T.);
#175=ORIENTED_EDGE('',*,*,#173,.T.);
#176=EDGE_LOOP('',(#174,#175));
#177=CARTESIAN_POINT('',(0,0,0));
#178=DIRECTION('',(0,0,1));
#179=DIRECTION('',(1,0,0));
#180=AXIS2_PLACEMENT_3D('',#177,#178,#179);
#181=CYLINDRICAL_SURFACE('',#180,15);
#182=FACE_OUTER_BOUND('',#157,.T.);
#183=FACE_BOUND('',#176,.T.);
#184=ADVANCED_FACE('',(#182,#183),#181,.F.);
#8001=CLOSED_SHELL('',(#46,#92,#138,#184));
#8002=MANIFOLD_SOLID_BREP('',#8001);
ENDSEC;
END-ISO-10303-21;
