ISO-10303-21;
HEADER;
FILE_DESCRIPTION(('Pruefkoerper'),'2;1');
FILE_NAME('pruefkoerper','2026-09-13T00:00:00',(''),(''),'','','');
FILE_SCHEMA(('AUTOMOTIVE_DESIGN'));
ENDSEC;
DATA;
#9001=(LENGTH_UNIT()NAMED_UNIT(*)SI_UNIT(.MILLI.,.METRE.));
#9002=(NAMED_UNIT(*)PLANE_ANGLE_UNIT()SI_UNIT($,.RADIAN.));
#1=CARTESIAN_POINT('',(55,45,10));
#2=VERTEX_POINT('',#1);
#3=CARTESIAN_POINT('',(35,45,10));
#4=VERTEX_POINT('',#3);
#5=CARTESIAN_POINT('',(45,45,10));
#6=DIRECTION('',(0,0,1));
#7=DIRECTION('',(1,0,0));
#8=AXIS2_PLACEMENT_3D('',#5,#6,#7);
#9=CIRCLE('',#8,10);
#10=EDGE_CURVE('',#2,#4,#9,.T.);
#11=CARTESIAN_POINT('',(45,45,10));
#12=DIRECTION('',(0,0,1));
#13=DIRECTION('',(1,0,0));
#14=AXIS2_PLACEMENT_3D('',#11,#12,#13);
#15=CIRCLE('',#14,10);
#16=EDGE_CURVE('',#4,#2,#15,.T.);
#17=ORIENTED_EDGE('',*,*,#16,.F.);
#18=ORIENTED_EDGE('',*,*,#10,.F.);
#19=EDGE_LOOP('',(#17,#18));
#20=CARTESIAN_POINT('',(55,45,0));
#21=VERTEX_POINT('',#20);
#22=CARTESIAN_POINT('',(35,45,0));
#23=VERTEX_POINT('',#22);
#24=CARTESIAN_POINT('',(45,45,0));
#25=DIRECTION('',(0,0,1));
#26=DIRECTION('',(1,0,0));
#27=AXIS2_PLACEMENT_3D('',#24,#25,#26);
#28=CIRCLE('',#27,10);
#29=EDGE_CURVE('',#21,#23,#28,.T.);
#30=CARTESIAN_POINT('',(45,45,0));
#31=DIRECTION('',(0,0,1));
#32=DIRECTION('',(1,0,0));
#33=AXIS2_PLACEMENT_3D('',#30,#31,#32);
#34=CIRCLE('',#33,10);
#35=EDGE_CURVE('',#23,#21,#34,.T.);
#36=ORIENTED_EDGE('',*,*,#29,.T.);
#37=ORIENTED_EDGE('',*,*,#35,.T.);
#38=EDGE_LOOP('',(#36,#37));
#39=CARTESIAN_POINT('',(0,0,10));
#40=VERTEX_POINT('',#39);
#41=CARTESIAN_POINT('',(90,0,10));
#42=VERTEX_POINT('',#41);
#43=CARTESIAN_POINT('',(90,90,10));
#44=VERTEX_POINT('',#43);
#45=CARTESIAN_POINT('',(0,90,10));
#46=VERTEX_POINT('',#45);
#47=CARTESIAN_POINT('',(0,0,10));
#48=DIRECTION('',(1,0,0));
#49=VECTOR('',#48,90);
#50=LINE('',#47,#49);
#51=EDGE_CURVE('',#40,#42,#50,.T.);
#52=ORIENTED_EDGE('',*,*,#51,.T.);
#53=CARTESIAN_POINT('',(90,0,10));
#54=DIRECTION('',(0,1,0));
#55=VECTOR('',#54,90);
#56=LINE('',#53,#55);
#57=EDGE_CURVE('',#42,#44,#56,.T.);
#58=ORIENTED_EDGE('',*,*,#57,.T.);
#59=CARTESIAN_POINT('',(90,90,10));
#60=DIRECTION('',(-1,0,0));
#61=VECTOR('',#60,90);
#62=LINE('',#59,#61);
#63=EDGE_CURVE('',#44,#46,#62,.T.);
#64=ORIENTED_EDGE('',*,*,#63,.T.);
#65=CARTESIAN_POINT('',(0,90,10));
#66=DIRECTION('',(0,-1,0));
#67=VECTOR('',#66,90);
#68=LINE('',#65,#67);
#69=EDGE_CURVE('',#46,#40,#68,.T.);
#70=ORIENTED_EDGE('',*,*,#69,.T.);
#71=EDGE_LOOP('',(#52,#58,#64,#70));
#72=FACE_OUTER_BOUND('',#71,.T.);
#73=FACE_BOUND('',#19,.T.);
#74=CARTESIAN_POINT('',(0,0,10));
#75=DIRECTION('',(0,0,1));
#76=DIRECTION('',(0,1,0));
#77=AXIS2_PLACEMENT_3D('',#74,#75,#76);
#78=PLANE('',#77);
#79=ADVANCED_FACE('',(#72,#73),#78,.T.);
#80=CARTESIAN_POINT('',(0,0,0));
#81=VERTEX_POINT('',#80);
#82=CARTESIAN_POINT('',(0,90,0));
#83=VERTEX_POINT('',#82);
#84=CARTESIAN_POINT('',(90,90,0));
#85=VERTEX_POINT('',#84);
#86=CARTESIAN_POINT('',(90,0,0));
#87=VERTEX_POINT('',#86);
#88=CARTESIAN_POINT('',(0,0,0));
#89=DIRECTION('',(0,1,0));
#90=VECTOR('',#89,90);
#91=LINE('',#88,#90);
#92=EDGE_CURVE('',#81,#83,#91,.T.);
#93=ORIENTED_EDGE('',*,*,#92,.T.);
#94=CARTESIAN_POINT('',(0,90,0));
#95=DIRECTION('',(1,0,0));
#96=VECTOR('',#95,90);
#97=LINE('',#94,#96);
#98=EDGE_CURVE('',#83,#85,#97,.T.);
#99=ORIENTED_EDGE('',*,*,#98,.T.);
#100=CARTESIAN_POINT('',(90,90,0));
#101=DIRECTION('',(0,-1,0));
#102=VECTOR('',#101,90);
#103=LINE('',#100,#102);
#104=EDGE_CURVE('',#85,#87,#103,.T.);
#105=ORIENTED_EDGE('',*,*,#104,.T.);
#106=CARTESIAN_POINT('',(90,0,0));
#107=DIRECTION('',(-1,0,0));
#108=VECTOR('',#107,90);
#109=LINE('',#106,#108);
#110=EDGE_CURVE('',#87,#81,#109,.T.);
#111=ORIENTED_EDGE('',*,*,#110,.T.);
#112=EDGE_LOOP('',(#93,#99,#105,#111));
#113=FACE_OUTER_BOUND('',#112,.T.);
#114=FACE_BOUND('',#38,.T.);
#115=CARTESIAN_POINT('',(0,0,0));
#116=DIRECTION('',(0,0,-1));
#117=DIRECTION('',(0,-1,0));
#118=AXIS2_PLACEMENT_3D('',#115,#116,#117);
#119=PLANE('',#118);
#120=ADVANCED_FACE('',(#113,#114),#119,.T.);
#121=CARTESIAN_POINT('',(0,0,0));
#122=VERTEX_POINT('',#121);
#123=CARTESIAN_POINT('',(90,0,0));
#124=VERTEX_POINT('',#123);
#125=CARTESIAN_POINT('',(90,0,10));
#126=VERTEX_POINT('',#125);
#127=CARTESIAN_POINT('',(0,0,10));
#128=VERTEX_POINT('',#127);
#129=CARTESIAN_POINT('',(0,0,0));
#130=DIRECTION('',(1,0,0));
#131=VECTOR('',#130,90);
#132=LINE('',#129,#131);
#133=EDGE_CURVE('',#122,#124,#132,.T.);
#134=ORIENTED_EDGE('',*,*,#133,.T.);
#135=CARTESIAN_POINT('',(90,0,0));
#136=DIRECTION('',(0,0,1));
#137=VECTOR('',#136,10);
#138=LINE('',#135,#137);
#139=EDGE_CURVE('',#124,#126,#138,.T.);
#140=ORIENTED_EDGE('',*,*,#139,.T.);
#141=CARTESIAN_POINT('',(90,0,10));
#142=DIRECTION('',(-1,0,0));
#143=VECTOR('',#142,90);
#144=LINE('',#141,#143);
#145=EDGE_CURVE('',#126,#128,#144,.T.);
#146=ORIENTED_EDGE('',*,*,#145,.T.);
#147=CARTESIAN_POINT('',(0,0,10));
#148=DIRECTION('',(0,0,-1));
#149=VECTOR('',#148,10);
#150=LINE('',#147,#149);
#151=EDGE_CURVE('',#128,#122,#150,.T.);
#152=ORIENTED_EDGE('',*,*,#151,.T.);
#153=EDGE_LOOP('',(#134,#140,#146,#152));
#154=FACE_OUTER_BOUND('',#153,.T.);
#155=CARTESIAN_POINT('',(0,0,0));
#156=DIRECTION('',(0,-1,0));
#157=DIRECTION('',(-1,0,0));
#158=AXIS2_PLACEMENT_3D('',#155,#156,#157);
#159=PLANE('',#158);
#160=ADVANCED_FACE('',(#154),#159,.T.);
#161=CARTESIAN_POINT('',(90,0,0));
#162=VERTEX_POINT('',#161);
#163=CARTESIAN_POINT('',(90,90,0));
#164=VERTEX_POINT('',#163);
#165=CARTESIAN_POINT('',(90,90,10));
#166=VERTEX_POINT('',#165);
#167=CARTESIAN_POINT('',(90,0,10));
#168=VERTEX_POINT('',#167);
#169=CARTESIAN_POINT('',(90,0,0));
#170=DIRECTION('',(0,1,0));
#171=VECTOR('',#170,90);
#172=LINE('',#169,#171);
#173=EDGE_CURVE('',#162,#164,#172,.T.);
#174=ORIENTED_EDGE('',*,*,#173,.T.);
#175=CARTESIAN_POINT('',(90,90,0));
#176=DIRECTION('',(0,0,1));
#177=VECTOR('',#176,10);
#178=LINE('',#175,#177);
#179=EDGE_CURVE('',#164,#166,#178,.T.);
#180=ORIENTED_EDGE('',*,*,#179,.T.);
#181=CARTESIAN_POINT('',(90,90,10));
#182=DIRECTION('',(0,-1,0));
#183=VECTOR('',#182,90);
#184=LINE('',#181,#183);
#185=EDGE_CURVE('',#166,#168,#184,.T.);
#186=ORIENTED_EDGE('',*,*,#185,.T.);
#187=CARTESIAN_POINT('',(90,0,10));
#188=DIRECTION('',(0,0,-1));
#189=VECTOR('',#188,10);
#190=LINE('',#187,#189);
#191=EDGE_CURVE('',#168,#162,#190,.T.);
#192=ORIENTED_EDGE('',*,*,#191,.T.);
#193=EDGE_LOOP('',(#174,#180,#186,#192));
#194=FACE_OUTER_BOUND('',#193,.T.);
#195=CARTESIAN_POINT('',(90,0,0));
#196=DIRECTION('',(1,0,0));
#197=DIRECTION('',(0,-1,0));
#198=AXIS2_PLACEMENT_3D('',#195,#196,#197);
#199=PLANE('',#198);
#200=ADVANCED_FACE('',(#194),#199,.T.);
#201=CARTESIAN_POINT('',(90,90,0));
#202=VERTEX_POINT('',#201);
#203=CARTESIAN_POINT('',(0,90,0));
#204=VERTEX_POINT('',#203);
#205=CARTESIAN_POINT('',(0,90,10));
#206=VERTEX_POINT('',#205);
#207=CARTESIAN_POINT('',(90,90,10));
#208=VERTEX_POINT('',#207);
#209=CARTESIAN_POINT('',(90,90,0));
#210=DIRECTION('',(-1,0,0));
#211=VECTOR('',#210,90);
#212=LINE('',#209,#211);
#213=EDGE_CURVE('',#202,#204,#212,.T.);
#214=ORIENTED_EDGE('',*,*,#213,.T.);
#215=CARTESIAN_POINT('',(0,90,0));
#216=DIRECTION('',(0,0,1));
#217=VECTOR('',#216,10);
#218=LINE('',#215,#217);
#219=EDGE_CURVE('',#204,#206,#218,.T.);
#220=ORIENTED_EDGE('',*,*,#219,.T.);
#221=CARTESIAN_POINT('',(0,90,10));
#222=DIRECTION('',(1,0,0));
#223=VECTOR('',#222,90);
#224=LINE('',#221,#223);
#225=EDGE_CURVE('',#206,#208,#224,.T.);
#226=ORIENTED_EDGE('',*,*,#225,.T.);
#227=CARTESIAN_POINT('',(90,90,10));
#228=DIRECTION('',(0,0,-1));
#229=VECTOR('',#228,10);
#230=LINE('',#227,#229);
#231=EDGE_CURVE('',#208,#202,#230,.T.);
#232=ORIENTED_EDGE('',*,*,#231,.T.);
#233=EDGE_LOOP('',(#214,#220,#226,#232));
#234=FACE_OUTER_BOUND('',#233,.T.);
#235=CARTESIAN_POINT('',(90,90,0));
#236=DIRECTION('',(0,1,0));
#237=DIRECTION('',(1,0,0));
#238=AXIS2_PLACEMENT_3D('',#235,#236,#237);
#239=PLANE('',#238);
#240=ADVANCED_FACE('',(#234),#239,.T.);
#241=CARTESIAN_POINT('',(0,90,0));
#242=VERTEX_POINT('',#241);
#243=CARTESIAN_POINT('',(0,0,0));
#244=VERTEX_POINT('',#243);
#245=CARTESIAN_POINT('',(0,0,10));
#246=VERTEX_POINT('',#245);
#247=CARTESIAN_POINT('',(0,90,10));
#248=VERTEX_POINT('',#247);
#249=CARTESIAN_POINT('',(0,90,0));
#250=DIRECTION('',(0,-1,0));
#251=VECTOR('',#250,90);
#252=LINE('',#249,#251);
#253=EDGE_CURVE('',#242,#244,#252,.T.);
#254=ORIENTED_EDGE('',*,*,#253,.T.);
#255=CARTESIAN_POINT('',(0,0,0));
#256=DIRECTION('',(0,0,1));
#257=VECTOR('',#256,10);
#258=LINE('',#255,#257);
#259=EDGE_CURVE('',#244,#246,#258,.T.);
#260=ORIENTED_EDGE('',*,*,#259,.T.);
#261=CARTESIAN_POINT('',(0,0,10));
#262=DIRECTION('',(0,1,0));
#263=VECTOR('',#262,90);
#264=LINE('',#261,#263);
#265=EDGE_CURVE('',#246,#248,#264,.T.);
#266=ORIENTED_EDGE('',*,*,#265,.T.);
#267=CARTESIAN_POINT('',(0,90,10));
#268=DIRECTION('',(0,0,-1));
#269=VECTOR('',#268,10);
#270=LINE('',#267,#269);
#271=EDGE_CURVE('',#248,#242,#270,.T.);
#272=ORIENTED_EDGE('',*,*,#271,.T.);
#273=EDGE_LOOP('',(#254,#260,#266,#272));
#274=FACE_OUTER_BOUND('',#273,.T.);
#275=CARTESIAN_POINT('',(0,90,0));
#276=DIRECTION('',(-1,0,0));
#277=DIRECTION('',(0,1,0));
#278=AXIS2_PLACEMENT_3D('',#275,#276,#277);
#279=PLANE('',#278);
#280=ADVANCED_FACE('',(#274),#279,.T.);
#281=CARTESIAN_POINT('',(55,45,0));
#282=VERTEX_POINT('',#281);
#283=CARTESIAN_POINT('',(35,45,0));
#284=VERTEX_POINT('',#283);
#285=CARTESIAN_POINT('',(45,45,0));
#286=DIRECTION('',(0,0,1));
#287=DIRECTION('',(1,0,0));
#288=AXIS2_PLACEMENT_3D('',#285,#286,#287);
#289=CIRCLE('',#288,10);
#290=EDGE_CURVE('',#282,#284,#289,.T.);
#291=CARTESIAN_POINT('',(45,45,0));
#292=DIRECTION('',(0,0,1));
#293=DIRECTION('',(1,0,0));
#294=AXIS2_PLACEMENT_3D('',#291,#292,#293);
#295=CIRCLE('',#294,10);
#296=EDGE_CURVE('',#284,#282,#295,.T.);
#297=ORIENTED_EDGE('',*,*,#296,.F.);
#298=ORIENTED_EDGE('',*,*,#290,.F.);
#299=EDGE_LOOP('',(#297,#298));
#300=CARTESIAN_POINT('',(55,45,10));
#301=VERTEX_POINT('',#300);
#302=CARTESIAN_POINT('',(35,45,10));
#303=VERTEX_POINT('',#302);
#304=CARTESIAN_POINT('',(45,45,10));
#305=DIRECTION('',(0,0,1));
#306=DIRECTION('',(1,0,0));
#307=AXIS2_PLACEMENT_3D('',#304,#305,#306);
#308=CIRCLE('',#307,10);
#309=EDGE_CURVE('',#301,#303,#308,.T.);
#310=CARTESIAN_POINT('',(45,45,10));
#311=DIRECTION('',(0,0,1));
#312=DIRECTION('',(1,0,0));
#313=AXIS2_PLACEMENT_3D('',#310,#311,#312);
#314=CIRCLE('',#313,10);
#315=EDGE_CURVE('',#303,#301,#314,.T.);
#316=ORIENTED_EDGE('',*,*,#309,.T.);
#317=ORIENTED_EDGE('',*,*,#315,.T.);
#318=EDGE_LOOP('',(#316,#317));
#319=CARTESIAN_POINT('',(45,45,0));
#320=DIRECTION('',(0,0,1));
#321=DIRECTION('',(1,0,0));
#322=AXIS2_PLACEMENT_3D('',#319,#320,#321);
#323=CYLINDRICAL_SURFACE('',#322,10);
#324=FACE_OUTER_BOUND('',#299,.T.);
#325=FACE_BOUND('',#318,.T.);
#326=ADVANCED_FACE('',(#324,#325),#323,.F.);
#8001=CLOSED_SHELL('',(#79,#120,#160,#200,#240,#280,#326));
#8002=MANIFOLD_SOLID_BREP('',#8001);
ENDSEC;
END-ISO-10303-21;
