ISO-10303-21;
HEADER;
FILE_DESCRIPTION(('Pruefkoerper'),'2;1');
FILE_NAME('pruefkoerper','2026-09-13T00:00:00',(''),(''),'','','');
FILE_SCHEMA(('AUTOMOTIVE_DESIGN'));
ENDSEC;
DATA;
#9001=(LENGTH_UNIT()NAMED_UNIT(*)SI_UNIT(.MILLI.,.METRE.));
#9002=(NAMED_UNIT(*)PLANE_ANGLE_UNIT()SI_UNIT($,.RADIAN.));
#1=CARTESIAN_POINT('',(0,0,80));
#2=VERTEX_POINT('',#1);
#3=CARTESIAN_POINT('',(80,0,80));
#4=VERTEX_POINT('',#3);
#5=CARTESIAN_POINT('',(80,80,80));
#6=VERTEX_POINT('',#5);
#7=CARTESIAN_POINT('',(0,80,80));
#8=VERTEX_POINT('',#7);
#9=CARTESIAN_POINT('',(0,0,80));
#10=DIRECTION('',(1,0,0));
#11=VECTOR('',#10,80);
#12=LINE('',#9,#11);
#13=EDGE_CURVE('',#2,#4,#12,.T.);
#14=ORIENTED_EDGE('',*,*,#13,.T.);
#15=CARTESIAN_POINT('',(80,0,80));
#16=DIRECTION('',(0,1,0));
#17=VECTOR('',#16,80);
#18=LINE('',#15,#17);
#19=EDGE_CURVE('',#4,#6,#18,.T.);
#20=ORIENTED_EDGE('',*,*,#19,.T.);
#21=CARTESIAN_POINT('',(80,80,80));
#22=DIRECTION('',(-1,0,0));
#23=VECTOR('',#22,80);
#24=LINE('',#21,#23);
#25=EDGE_CURVE('',#6,#8,#24,.T.);
#26=ORIENTED_EDGE('',*,*,#25,.T.);
#27=CARTESIAN_POINT('',(0,80,80));
#28=DIRECTION('',(0,-1,0));
#29=VECTOR('',#28,80);
#30=LINE('',#27,#29);
#31=EDGE_CURVE('',#8,#2,#30,.T.);
#32=ORIENTED_EDGE('',*,*,#31,.T.);
#33=EDGE_LOOP('',(#14,#20,#26,#32));
#34=FACE_OUTER_BOUND('',#33,.T.);
#35=CARTESIAN_POINT('',(0,0,80));
#36=DIRECTION('',(0,0,1));
#37=DIRECTION('',(0,1,0));
#38=AXIS2_PLACEMENT_3D('',#35,#36,#37);
#39=PLANE('',#38);
#40=ADVANCED_FACE('',(#34),#39,.T.);
#41=CARTESIAN_POINT('',(0,0,0));
#42=VERTEX_POINT('',#41);
#43=CARTESIAN_POINT('',(0,80,0));
#44=VERTEX_POINT('',#43);
#45=CARTESIAN_POINT('',(80,80,0));
#46=VERTEX_POINT('',#45);
#47=CARTESIAN_POINT('',(80,0,0));
#48=VERTEX_POINT('',#47);
#49=CARTESIAN_POINT('',(0,0,0));
#50=DIRECTION('',(0,1,0));
#51=VECTOR('',#50,80);
#52=LINE('',#49,#51);
#53=EDGE_CURVE('',#42,#44,#52,.T.);
#54=ORIENTED_EDGE('',*,*,#53,.T.);
#55=CARTESIAN_POINT('',(0,80,0));
#56=DIRECTION('',(1,0,0));
#57=VECTOR('',#56,80);
#58=LINE('',#55,#57);
#59=EDGE_CURVE('',#44,#46,#58,.T.);
#60=ORIENTED_EDGE('',*,*,#59,.T.);
#61=CARTESIAN_POINT('',(80,80,0));
#62=DIRECTION('',(0,-1,0));
#63=VECTOR('',#62,80);
#64=LINE('',#61,#63);
#65=EDGE_CURVE('',#46,#48,#64,.T.);
#66=ORIENTED_EDGE('',*,*,#65,.T.);
#67=CARTESIAN_POINT('',(80,0,0));
#68=DIRECTION('',(-1,0,0));
#69=VECTOR('',#68,80);
#70=LINE('',#67,#69);
#71=EDGE_CURVE('',#48,#42,#70,.T.);
#72=ORIENTED_EDGE('',*,*,#71,.T.);
#73=EDGE_LOOP('',(#54,#60,#66,#72));
#74=FACE_OUTER_BOUND('',#73,.T.);
#75=CARTESIAN_POINT('',(0,0,0));
#76=DIRECTION('',(0,0,-1));
#77=DIRECTION('',(0,-1,0));
#78=AXIS2_PLACEMENT_3D('',#75,#76,#77);
#79=PLANE('',#78);
#80=ADVANCED_FACE('',(#74),#79,.T.);
#81=CARTESIAN_POINT('',(0,0,0));
#82=VERTEX_POINT('',#81);
#83=CARTESIAN_POINT('',(80,0,0));
#84=VERTEX_POINT('',#83);
#85=CARTESIAN_POINT('',(80,0,80));
#86=VERTEX_POINT('',#85);
#87=CARTESIAN_POINT('',(0,0,80));
#88=VERTEX_POINT('',#87);
#89=CARTESIAN_POINT('',(0,0,0));
#90=DIRECTION('',(1,0,0));
#91=VECTOR('',#90,80);
#92=LINE('',#89,#91);
#93=EDGE_CURVE('',#82,#84,#92,.T.);
#94=ORIENTED_EDGE('',*,*,#93,.T.);
#95=CARTESIAN_POINT('',(80,0,0));
#96=DIRECTION('',(0,0,1));
#97=VECTOR('',#96,80);
#98=LINE('',#95,#97);
#99=EDGE_CURVE('',#84,#86,#98,.T.);
#100=ORIENTED_EDGE('',*,*,#99,.T.);
#101=CARTESIAN_POINT('',(80,0,80));
#102=DIRECTION('',(-1,0,0));
#103=VECTOR('',#102,80);
#104=LINE('',#101,#103);
#105=EDGE_CURVE('',#86,#88,#104,.T.);
#106=ORIENTED_EDGE('',*,*,#105,.T.);
#107=CARTESIAN_POINT('',(0,0,80));
#108=DIRECTION('',(0,0,-1));
#109=VECTOR('',#108,80);
#110=LINE('',#107,#109);
#111=EDGE_CURVE('',#88,#82,#110,.T.);
#112=ORIENTED_EDGE('',*,*,#111,.T.);
#113=EDGE_LOOP('',(#94,#100,#106,#112));
#114=FACE_OUTER_BOUND('',#113,.T.);
#115=CARTESIAN_POINT('',(0,0,0));
#116=DIRECTION('',(0,-1,0));
#117=DIRECTION('',(-1,0,0));
#118=AXIS2_PLACEMENT_3D('',#115,#116,#117);
#119=PLANE('',#118);
#120=ADVANCED_FACE('',(#114),#119,.T.);
#121=CARTESIAN_POINT('',(80,0,0));
#122=VERTEX_POINT('',#121);
#123=CARTESIAN_POINT('',(80,80,0));
#124=VERTEX_POINT('',#123);
#125=CARTESIAN_POINT('',(80,80,80));
#126=VERTEX_POINT('',#125);
#127=CARTESIAN_POINT('',(80,0,80));
#128=VERTEX_POINT('',#127);
#129=CARTESIAN_POINT('',(80,0,0));
#130=DIRECTION('',(0,1,0));
#131=VECTOR('',#130,80);
#132=LINE('',#129,#131);
#133=EDGE_CURVE('',#122,#124,#132,.T.);
#134=ORIENTED_EDGE('',*,*,#133,.T.);
#135=CARTESIAN_POINT('',(80,80,0));
#136=DIRECTION('',(0,0,1));
#137=VECTOR('',#136,80);
#138=LINE('',#135,#137);
#139=EDGE_CURVE('',#124,#126,#138,.T.);
#140=ORIENTED_EDGE('',*,*,#139,.T.);
#141=CARTESIAN_POINT('',(80,80,80));
#142=DIRECTION('',(0,-1,0));
#143=VECTOR('',#142,80);
#144=LINE('',#141,#143);
#145=EDGE_CURVE('',#126,#128,#144,.T.);
#146=ORIENTED_EDGE('',*,*,#145,.T.);
#147=CARTESIAN_POINT('',(80,0,80));
#148=DIRECTION('',(0,0,-1));
#149=VECTOR('',#148,80);
#150=LINE('',#147,#149);
#151=EDGE_CURVE('',#128,#122,#150,.T.);
#152=ORIENTED_EDGE('',*,*,#151,.T.);
#153=EDGE_LOOP('',(#134,#140,#146,#152));
#154=FACE_OUTER_BOUND('',#153,.T.);
#155=CARTESIAN_POINT('',(80,0,0));
#156=DIRECTION('',(1,0,0));
#157=DIRECTION('',(0,-1,0));
#158=AXIS2_PLACEMENT_3D('',#155,#156,#157);
#159=PLANE('',#158);
#160=ADVANCED_FACE('',(#154),#159,.T.);
#161=CARTESIAN_POINT('',(80,80,0));
#162=VERTEX_POINT('',#161);
#163=CARTESIAN_POINT('',(0,80,0));
#164=VERTEX_POINT('',#163);
#165=CARTESIAN_POINT('',(0,80,80));
#166=VERTEX_POINT('',#165);
#167=CARTESIAN_POINT('',(80,80,80));
#168=VERTEX_POINT('',#167);
#169=CARTESIAN_POINT('',(80,80,0));
#170=DIRECTION('',(-1,0,0));
#171=VECTOR('',#170,80);
#172=LINE('',#169,#171);
#173=EDGE_CURVE('',#162,#164,#172,.T.);
#174=ORIENTED_EDGE('',*,*,#173,.T.);
#175=CARTESIAN_POINT('',(0,80,0));
#176=DIRECTION('',(0,0,1));
#177=VECTOR('',#176,80);
#178=LINE('',#175,#177);
#179=EDGE_CURVE('',#164,#166,#178,.T.);
#180=ORIENTED_EDGE('',*,*,#179,.T.);
#181=CARTESIAN_POINT('',(0,80,80));
#182=DIRECTION('',(1,0,0));
#183=VECTOR('',#182,80);
#184=LINE('',#181,#183);
#185=EDGE_CURVE('',#166,#168,#184,.T.);
#186=ORIENTED_EDGE('',*,*,#185,.T.);
#187=CARTESIAN_POINT('',(80,80,80));
#188=DIRECTION('',(0,0,-1));
#189=VECTOR('',#188,80);
#190=LINE('',#187,#189);
#191=EDGE_CURVE('',#168,#162,#190,.T.);
#192=ORIENTED_EDGE('',*,*,#191,.T.);
#193=EDGE_LOOP('',(#174,#180,#186,#192));
#194=FACE_OUTER_BOUND('',#193,.T.);
#195=CARTESIAN_POINT('',(80,80,0));
#196=DIRECTION('',(0,1,0));
#197=DIRECTION('',(1,0,0));
#198=AXIS2_PLACEMENT_3D('',#195,#196,#197);
#199=PLANE('',#198);
#200=ADVANCED_FACE('',(#194),#199,.T.);
#201=CARTESIAN_POINT('',(0,80,0));
#202=VERTEX_POINT('',#201);
#203=CARTESIAN_POINT('',(0,0,0));
#204=VERTEX_POINT('',#203);
#205=CARTESIAN_POINT('',(0,0,80));
#206=VERTEX_POINT('',#205);
#207=CARTESIAN_POINT('',(0,80,80));
#208=VERTEX_POINT('',#207);
#209=CARTESIAN_POINT('',(0,80,0));
#210=DIRECTION('',(0,-1,0));
#211=VECTOR('',#210,80);
#212=LINE('',#209,#211);
#213=EDGE_CURVE('',#202,#204,#212,.T.);
#214=ORIENTED_EDGE('',*,*,#213,.T.);
#215=CARTESIAN_POINT('',(0,0,0));
#216=DIRECTION('',(0,0,1));
#217=VECTOR('',#216,80);
#218=LINE('',#215,#217);
#219=EDGE_CURVE('',#204,#206,#218,.T.);
#220=ORIENTED_EDGE('',*,*,#219,.T.);
#221=CARTESIAN_POINT('',(0,0,80));
#222=DIRECTION('',(0,1,0));
#223=VECTOR('',#222,80);
#224=LINE('',#221,#223);
#225=EDGE_CURVE('',#206,#208,#224,.T.);
#226=ORIENTED_EDGE('',*,*,#225,.T.);
#227=CARTESIAN_POINT('',(0,80,80));
#228=DIRECTION('',(0,0,-1));
#229=VECTOR('',#228,80);
#230=LINE('',#227,#229);
#231=EDGE_CURVE('',#208,#202,#230,.T.);
#232=ORIENTED_EDGE('',*,*,#231,.T.);
#233=EDGE_LOOP('',(#214,#220,#226,#232));
#234=FACE_OUTER_BOUND('',#233,.T.);
#235=CARTESIAN_POINT('',(0,80,0));
#236=DIRECTION('',(-1,0,0));
#237=DIRECTION('',(0,1,0));
#238=AXIS2_PLACEMENT_3D('',#235,#236,#237);
#239=PLANE('',#238);
#240=ADVANCED_FACE('',(#234),#239,.T.);
#8001=CLOSED_SHELL('',(#40,#80,#120,#160,#200,#240));
#8002=MANIFOLD_SOLID_BREP('',#8001);
ENDSEC;
END-ISO-10303-21;
