ISO-10303-21;
HEADER;
FILE_DESCRIPTION(('Pruefkoerper'),'2;1');
FILE_NAME('pruefkoerper','2026-09-13T00:00:00',(''),(''),'','','');
FILE_SCHEMA(('AUTOMOTIVE_DESIGN'));
ENDSEC;
DATA;
#9001=(LENGTH_UNIT()NAMED_UNIT(*)SI_UNIT(.MILLI.,.METRE.));
#9002=(NAMED_UNIT(*)PLANE_ANGLE_UNIT()SI_UNIT($,.RADIAN.));
#1=CARTESIAN_POINT('',(40,0,0));
#2=VERTEX_POINT('',#1);
#3=CARTESIAN_POINT('',(-40,0,0));
#4=VERTEX_POINT('',#3);
#5=CARTESIAN_POINT('',(0,0,0));
#6=DIRECTION('',(0,0,1));
#7=DIRECTION('',(1,0,0));
#8=AXIS2_PLACEMENT_3D('',#5,#6,#7);
#9=CIRCLE('',#8,40);
#10=EDGE_CURVE('',#2,#4,#9,.T.);
#11=CARTESIAN_POINT('',(0,0,0));
#12=DIRECTION('',(0,0,1));
#13=DIRECTION('',(1,0,0));
#14=AXIS2_PLACEMENT_3D('',#11,#12,#13);
#15=CIRCLE('',#14,40);
#16=EDGE_CURVE('',#4,#2,#15,.T.);
#17=ORIENTED_EDGE('',*,*,#10,.T.);
#18=ORIENTED_EDGE('',*,*,#16,.T.);
#19=EDGE_LOOP('',(#17,#18));
#20=CARTESIAN_POINT('',(40,0,25));
#21=VERTEX_POINT('',#20);
#22=CARTESIAN_POINT('',(-40,0,25));
#23=VERTEX_POINT('',#22);
#24=CARTESIAN_POINT('',(0,0,25));
#25=DIRECTION('',(0,0,1));
#26=DIRECTION('',(1,0,0));
#27=AXIS2_PLACEMENT_3D('',#24,#25,#26);
#28=CIRCLE('',#27,40);
#29=EDGE_CURVE('',#21,#23,#28,.T.);
#30=CARTESIAN_POINT('',(0,0,25));
#31=DIRECTION('',(0,0,1));
#32=DIRECTION('',(1,0,0));
#33=AXIS2_PLACEMENT_3D('',#30,#31,#32);
#34=CIRCLE('',#33,40);
#35=EDGE_CURVE('',#23,#21,#34,.T.);
#36=ORIENTED_EDGE('',*,*,#35,.F.);
#37=ORIENTED_EDGE('',*,*,#29,.F.);
#38=EDGE_LOOP('',(#36,#37));
#39=CARTESIAN_POINT('',(0,0,0));
#40=DIRECTION('',(0,0,1));
#41=DIRECTION('',(1,0,0));
#42=AXIS2_PLACEMENT_3D('',#39,#40,#41);
#43=CYLINDRICAL_SURFACE('',#42,40);
#44=FACE_OUTER_BOUND('',#19,.T.);
#45=FACE_BOUND('',#38,.T.);
#46=ADVANCED_FACE('',(#44,#45),#43,.T.);
#47=CARTESIAN_POINT('',(30,0,25));
#48=VERTEX_POINT('',#47);
#49=CARTESIAN_POINT('',(-30,0,25));
#50=VERTEX_POINT('',#49);
#51=CARTESIAN_POINT('',(0,0,25));
#52=DIRECTION('',(0,0,1));
#53=DIRECTION('',(1,0,0));
#54=AXIS2_PLACEMENT_3D('',#51,#52,#53);
#55=CIRCLE('',#54,30);
#56=EDGE_CURVE('',#48,#50,#55,.T.);
#57=CARTESIAN_POINT('',(0,0,25));
#58=DIRECTION('',(0,0,1));
#59=DIRECTION('',(1,0,0));
#60=AXIS2_PLACEMENT_3D('',#57,#58,#59);
#61=CIRCLE('',#60,30);
#62=EDGE_CURVE('',#50,#48,#61,.T.);
#63=ORIENTED_EDGE('',*,*,#56,.T.);
#64=ORIENTED_EDGE('',*,*,#62,.T.);
#65=EDGE_LOOP('',(#63,#64));
#66=CARTESIAN_POINT('',(30,0,60));
#67=VERTEX_POINT('',#66);
#68=CARTESIAN_POINT('',(-30,0,60));
#69=VERTEX_POINT('',#68);
#70=CARTESIAN_POINT('',(0,0,60));
#71=DIRECTION('',(0,0,1));
#72=DIRECTION('',(1,0,0));
#73=AXIS2_PLACEMENT_3D('',#70,#71,#72);
#74=CIRCLE('',#73,30);
#75=EDGE_CURVE('',#67,#69,#74,.T.);
#76=CARTESIAN_POINT('',(0,0,60));
#77=DIRECTION('',(0,0,1));
#78=DIRECTION('',(1,0,0));
#79=AXIS2_PLACEMENT_3D('',#76,#77,#78);
#80=CIRCLE('',#79,30);
#81=EDGE_CURVE('',#69,#67,#80,.T.);
#82=ORIENTED_EDGE('',*,*,#81,.F.);
#83=ORIENTED_EDGE('',*,*,#75,.F.);
#84=EDGE_LOOP('',(#82,#83));
#85=CARTESIAN_POINT('',(0,0,25));
#86=DIRECTION('',(0,0,1));
#87=DIRECTION('',(1,0,0));
#88=AXIS2_PLACEMENT_3D('',#85,#86,#87);
#89=CYLINDRICAL_SURFACE('',#88,30);
#90=FACE_OUTER_BOUND('',#65,.T.);
#91=FACE_BOUND('',#84,.T.);
#92=ADVANCED_FACE('',(#90,#91),#89,.T.);
#93=CARTESIAN_POINT('',(40,0,25));
#94=VERTEX_POINT('',#93);
#95=CARTESIAN_POINT('',(-40,0,25));
#96=VERTEX_POINT('',#95);
#97=CARTESIAN_POINT('',(0,0,25));
#98=DIRECTION('',(0,0,1));
#99=DIRECTION('',(1,0,0));
#100=AXIS2_PLACEMENT_3D('',#97,#98,#99);
#101=CIRCLE('',#100,40);
#102=EDGE_CURVE('',#94,#96,#101,.T.);
#103=CARTESIAN_POINT('',(0,0,25));
#104=DIRECTION('',(0,0,1));
#105=DIRECTION('',(1,0,0));
#106=AXIS2_PLACEMENT_3D('',#103,#104,#105);
#107=CIRCLE('',#106,40);
#108=EDGE_CURVE('',#96,#94,#107,.T.);
#109=ORIENTED_EDGE('',*,*,#102,.T.);
#110=ORIENTED_EDGE('',*,*,#108,.T.);
#111=EDGE_LOOP('',(#109,#110));
#112=FACE_OUTER_BOUND('',#111,.T.);
#113=CARTESIAN_POINT('',(30,0,25));
#114=VERTEX_POINT('',#113);
#115=CARTESIAN_POINT('',(-30,0,25));
#116=VERTEX_POINT('',#115);
#117=CARTESIAN_POINT('',(0,0,25));
#118=DIRECTION('',(0,0,1));
#119=DIRECTION('',(1,0,0));
#120=AXIS2_PLACEMENT_3D('',#117,#118,#119);
#121=CIRCLE('',#120,30);
#122=EDGE_CURVE('',#114,#116,#121,.T.);
#123=CARTESIAN_POINT('',(0,0,25));
#124=DIRECTION('',(0,0,1));
#125=DIRECTION('',(1,0,0));
#126=AXIS2_PLACEMENT_3D('',#123,#124,#125);
#127=CIRCLE('',#126,30);
#128=EDGE_CURVE('',#116,#114,#127,.T.);
#129=ORIENTED_EDGE('',*,*,#128,.F.);
#130=ORIENTED_EDGE('',*,*,#122,.F.);
#131=EDGE_LOOP('',(#129,#130));
#132=FACE_BOUND('',#131,.T.);
#133=CARTESIAN_POINT('',(0,0,25));
#134=DIRECTION('',(0,0,1));
#135=DIRECTION('',(1,0,0));
#136=AXIS2_PLACEMENT_3D('',#133,#134,#135);
#137=PLANE('',#136);
#138=ADVANCED_FACE('',(#112,#132),#137,.T.);
#139=CARTESIAN_POINT('',(40,0,0));
#140=VERTEX_POINT('',#139);
#141=CARTESIAN_POINT('',(-40,0,0));
#142=VERTEX_POINT('',#141);
#143=CARTESIAN_POINT('',(0,0,0));
#144=DIRECTION('',(0,0,1));
#145=DIRECTION('',(1,0,0));
#146=AXIS2_PLACEMENT_3D('',#143,#144,#145);
#147=CIRCLE('',#146,40);
#148=EDGE_CURVE('',#140,#142,#147,.T.);
#149=CARTESIAN_POINT('',(0,0,0));
#150=DIRECTION('',(0,0,1));
#151=DIRECTION('',(1,0,0));
#152=AXIS2_PLACEMENT_3D('',#149,#150,#151);
#153=CIRCLE('',#152,40);
#154=EDGE_CURVE('',#142,#140,#153,.T.);
#155=ORIENTED_EDGE('',*,*,#154,.F.);
#156=ORIENTED_EDGE('',*,*,#148,.F.);
#157=EDGE_LOOP('',(#155,#156));
#158=FACE_OUTER_BOUND('',#157,.T.);
#159=CARTESIAN_POINT('',(20,0,0));
#160=VERTEX_POINT('',#159);
#161=CARTESIAN_POINT('',(-20,0,0));
#162=VERTEX_POINT('',#161);
#163=CARTESIAN_POINT('',(0,0,0));
#164=DIRECTION('',(0,0,1));
#165=DIRECTION('',(1,0,0));
#166=AXIS2_PLACEMENT_3D('',#163,#164,#165);
#167=CIRCLE('',#166,20);
#168=EDGE_CURVE('',#160,#162,#167,.T.);
#169=CARTESIAN_POINT('',(0,0,0));
#170=DIRECTION('',(0,0,1));
#171=DIRECTION('',(1,0,0));
#172=AXIS2_PLACEMENT_3D('',#169,#170,#171);
#173=CIRCLE('',#172,20);
#174=EDGE_CURVE('',#162,#160,#173,.T.);
#175=ORIENTED_EDGE('',*,*,#168,.T.);
#176=ORIENTED_EDGE('',*,*,#174,.T.);
#177=EDGE_LOOP('',(#175,#176));
#178=FACE_BOUND('',#177,.T.);
#179=CARTESIAN_POINT('',(0,0,0));
#180=DIRECTION('',(0,0,-1));
#181=DIRECTION('',(1,0,0));
#182=AXIS2_PLACEMENT_3D('',#179,#180,#181);
#183=PLANE('',#182);
#184=ADVANCED_FACE('',(#158,#178),#183,.T.);
#185=CARTESIAN_POINT('',(30,0,60));
#186=VERTEX_POINT('',#185);
#187=CARTESIAN_POINT('',(-30,0,60));
#188=VERTEX_POINT('',#187);
#189=CARTESIAN_POINT('',(0,0,60));
#190=DIRECTION('',(0,0,1));
#191=DIRECTION('',(1,0,0));
#192=AXIS2_PLACEMENT_3D('',#189,#190,#191);
#193=CIRCLE('',#192,30);
#194=EDGE_CURVE('',#186,#188,#193,.T.);
#195=CARTESIAN_POINT('',(0,0,60));
#196=DIRECTION('',(0,0,1));
#197=DIRECTION('',(1,0,0));
#198=AXIS2_PLACEMENT_3D('',#195,#196,#197);
#199=CIRCLE('',#198,30);
#200=EDGE_CURVE('',#188,#186,#199,.T.);
#201=ORIENTED_EDGE('',*,*,#194,.T.);
#202=ORIENTED_EDGE('',*,*,#200,.T.);
#203=EDGE_LOOP('',(#201,#202));
#204=FACE_OUTER_BOUND('',#203,.T.);
#205=CARTESIAN_POINT('',(20,0,60));
#206=VERTEX_POINT('',#205);
#207=CARTESIAN_POINT('',(-20,0,60));
#208=VERTEX_POINT('',#207);
#209=CARTESIAN_POINT('',(0,0,60));
#210=DIRECTION('',(0,0,1));
#211=DIRECTION('',(1,0,0));
#212=AXIS2_PLACEMENT_3D('',#209,#210,#211);
#213=CIRCLE('',#212,20);
#214=EDGE_CURVE('',#206,#208,#213,.T.);
#215=CARTESIAN_POINT('',(0,0,60));
#216=DIRECTION('',(0,0,1));
#217=DIRECTION('',(1,0,0));
#218=AXIS2_PLACEMENT_3D('',#215,#216,#217);
#219=CIRCLE('',#218,20);
#220=EDGE_CURVE('',#208,#206,#219,.T.);
#221=ORIENTED_EDGE('',*,*,#220,.F.);
#222=ORIENTED_EDGE('',*,*,#214,.F.);
#223=EDGE_LOOP('',(#221,#222));
#224=FACE_BOUND('',#223,.T.);
#225=CARTESIAN_POINT('',(0,0,60));
#226=DIRECTION('',(0,0,1));
#227=DIRECTION('',(1,0,0));
#228=AXIS2_PLACEMENT_3D('',#225,#226,#227);
#229=PLANE('',#228);
#230=ADVANCED_FACE('',(#204,#224),#229,.T.);
#231=CARTESIAN_POINT('',(20,0,0));
#232=VERTEX_POINT('',#231);
#233=CARTESIAN_POINT('',(-20,0,0));
#234=VERTEX_POINT('',#233);
#235=CARTESIAN_POINT('',(0,0,0));
#236=DIRECTION('',(0,0,1));
#237=DIRECTION('',(1,0,0));
#238=AXIS2_PLACEMENT_3D('',#235,#236,#237);
#239=CIRCLE('',#238,20);
#240=EDGE_CURVE('',#232,#234,#239,.T.);
#241=CARTESIAN_POINT('',(0,0,0));
#242=DIRECTION('',(0,0,1));
#243=DIRECTION('',(1,0,0));
#244=AXIS2_PLACEMENT_3D('',#241,#242,#243);
#245=CIRCLE('',#244,20);
#246=EDGE_CURVE('',#234,#232,#245,.T.);
#247=ORIENTED_EDGE('',*,*,#246,.F.);
#248=ORIENTED_EDGE('',*,*,#240,.F.);
#249=EDGE_LOOP('',(#247,#248));
#250=CARTESIAN_POINT('',(20,0,60));
#251=VERTEX_POINT('',#250);
#252=CARTESIAN_POINT('',(-20,0,60));
#253=VERTEX_POINT('',#252);
#254=CARTESIAN_POINT('',(0,0,60));
#255=DIRECTION('',(0,0,1));
#256=DIRECTION('',(1,0,0));
#257=AXIS2_PLACEMENT_3D('',#254,#255,#256);
#258=CIRCLE('',#257,20);
#259=EDGE_CURVE('',#251,#253,#258,.T.);
#260=CARTESIAN_POINT('',(0,0,60));
#261=DIRECTION('',(0,0,1));
#262=DIRECTION('',(1,0,0));
#263=AXIS2_PLACEMENT_3D('',#260,#261,#262);
#264=CIRCLE('',#263,20);
#265=EDGE_CURVE('',#253,#251,#264,.T.);
#266=ORIENTED_EDGE('',*,*,#259,.T.);
#267=ORIENTED_EDGE('',*,*,#265,.T.);
#268=EDGE_LOOP('',(#266,#267));
#269=CARTESIAN_POINT('',(0,0,0));
#270=DIRECTION('',(0,0,1));
#271=DIRECTION('',(1,0,0));
#272=AXIS2_PLACEMENT_3D('',#269,#270,#271);
#273=CYLINDRICAL_SURFACE('',#272,20);
#274=FACE_OUTER_BOUND('',#249,.T.);
#275=FACE_BOUND('',#268,.T.);
#276=ADVANCED_FACE('',(#274,#275),#273,.F.);
#8001=CLOSED_SHELL('',(#46,#92,#138,#184,#230,#276));
#8002=MANIFOLD_SOLID_BREP('',#8001);
ENDSEC;
END-ISO-10303-21;
